<svg width="32" height="32" viewBox="0 0 32 32" fill="none" xmlns="http://www.w3.org/2000/svg">
<rect x="0.5" y="0.5" width="31" height="31" rx="8" fill="#6D6D6D"/>
<path d="M16.25 23.875C14.6492 23.875 13.0844 23.4131 11.7534 22.5478C10.4223 21.6825 9.38495 20.4526 8.77235 19.0136C8.15976 17.5747 7.99947 15.9913 8.31177 14.4637C8.62407 12.9361 9.39493 11.5329 10.5269 10.4315C11.6588 9.3302 13.101 8.58018 14.671 8.27632C16.241 7.97246 17.8684 8.12841 19.3473 8.72445C20.8263 9.32049 22.0904 10.3299 22.9797 11.6249C23.8691 12.9199 24.3438 14.4425 24.3438 16C24.3438 18.0886 23.491 20.0916 21.9731 21.5685C20.4553 23.0453 18.3966 23.875 16.25 23.875ZM16.25 9.25C14.8779 9.25 13.5366 9.64588 12.3957 10.3876C11.2549 11.1293 10.3657 12.1835 9.84059 13.4169C9.31551 14.6503 9.17812 16.0075 9.44581 17.3169C9.71349 18.6262 10.3742 19.829 11.3445 20.773C12.3147 21.717 13.5508 22.3599 14.8966 22.6203C16.2423 22.8808 17.6372 22.7471 18.9049 22.2362C20.1725 21.7253 21.256 20.8601 22.0183 19.7501C22.7806 18.6401 23.1875 17.335 23.1875 16C23.1875 14.2098 22.4566 12.4929 21.1556 11.227C19.8545 9.96116 18.0899 9.25 16.25 9.25Z" fill="white"/>
<path d="M16.25 23.875C16.0967 23.875 15.9496 23.8157 15.8412 23.7102C15.7328 23.6048 15.6719 23.4617 15.6719 23.3125V8.6875C15.6719 8.53832 15.7328 8.39524 15.8412 8.28975C15.9496 8.18426 16.0967 8.125 16.25 8.125C16.4033 8.125 16.5504 8.18426 16.6588 8.28975C16.7672 8.39524 16.8281 8.53832 16.8281 8.6875V23.3125C16.8281 23.4617 16.7672 23.6048 16.6588 23.7102C16.5504 23.8157 16.4033 23.875 16.25 23.875Z" fill="white"/>
<path d="M20.2969 16.5625C20.1435 16.5625 19.9965 16.5032 19.8881 16.3977C19.7797 16.2923 19.7188 16.1492 19.7188 16C19.7188 12.3438 18.1289 9.25 16.25 9.25C16.0967 9.25 15.9496 9.19074 15.8412 9.08525C15.7328 8.97976 15.6719 8.83668 15.6719 8.6875C15.6719 8.53832 15.7328 8.39524 15.8412 8.28975C15.9496 8.18426 16.0967 8.125 16.25 8.125C18.8458 8.125 20.875 11.5844 20.875 16C20.875 16.1492 20.8141 16.2923 20.7057 16.3977C20.5973 16.5032 20.4502 16.5625 20.2969 16.5625Z" fill="white"/>
<path d="M16.25 23.875C16.0967 23.875 15.9496 23.8157 15.8412 23.7102C15.7328 23.6048 15.6719 23.4617 15.6719 23.3125C15.6719 23.1633 15.7328 23.0202 15.8412 22.9148C15.9496 22.8093 16.0967 22.75 16.25 22.75C18.1289 22.75 19.7188 19.6562 19.7188 16C19.7188 15.8508 19.7797 15.7077 19.8881 15.6023C19.9965 15.4968 20.1435 15.4375 20.2969 15.4375C20.4502 15.4375 20.5973 15.4968 20.7057 15.6023C20.8141 15.7077 20.875 15.8508 20.875 16C20.875 20.4156 18.8458 23.875 16.25 23.875Z" fill="white"/>
<path d="M12.2031 16.5625C12.0498 16.5625 11.9027 16.5032 11.7943 16.3977C11.6859 16.2923 11.625 16.1492 11.625 16C11.625 11.5844 13.6542 8.125 16.25 8.125C16.4033 8.125 16.5504 8.18426 16.6588 8.28975C16.7672 8.39524 16.8281 8.53832 16.8281 8.6875C16.8281 8.83668 16.7672 8.97976 16.6588 9.08525C16.5504 9.19074 16.4033 9.25 16.25 9.25C14.3711 9.25 12.7812 12.3438 12.7812 16C12.7812 16.1492 12.7203 16.2923 12.6119 16.3977C12.5035 16.5032 12.3565 16.5625 12.2031 16.5625Z" fill="white"/>
<path d="M16.25 23.875C13.6542 23.875 11.625 20.4156 11.625 16C11.625 15.8508 11.6859 15.7077 11.7943 15.6023C11.9027 15.4968 12.0498 15.4375 12.2031 15.4375C12.3565 15.4375 12.5035 15.4968 12.6119 15.6023C12.7203 15.7077 12.7812 15.8508 12.7812 16C12.7812 19.6562 14.3711 22.75 16.25 22.75C16.4033 22.75 16.5504 22.8093 16.6588 22.9148C16.7672 23.0202 16.8281 23.1633 16.8281 23.3125C16.8281 23.4617 16.7672 23.6048 16.6588 23.7102C16.5504 23.8157 16.4033 23.875 16.25 23.875Z" fill="white"/>
<path d="M23.7656 16.5625H8.73438C8.58105 16.5625 8.434 16.5032 8.32558 16.3977C8.21716 16.2923 8.15625 16.1492 8.15625 16C8.15625 15.8508 8.21716 15.7077 8.32558 15.6023C8.434 15.4968 8.58105 15.4375 8.73438 15.4375H23.7656C23.919 15.4375 24.066 15.4968 24.1744 15.6023C24.2828 15.7077 24.3438 15.8508 24.3438 16C24.3438 16.1492 24.2828 16.2923 24.1744 16.3977C24.066 16.5032 23.919 16.5625 23.7656 16.5625Z" fill="white"/>
<path d="M22.6094 13.1875H9.89062C9.7373 13.1875 9.59025 13.1282 9.48183 13.0227C9.37341 12.9173 9.3125 12.7742 9.3125 12.625C9.3125 12.4758 9.37341 12.3327 9.48183 12.2273C9.59025 12.1218 9.7373 12.0625 9.89062 12.0625H22.6094C22.7627 12.0625 22.9098 12.1218 23.0182 12.2273C23.1266 12.3327 23.1875 12.4758 23.1875 12.625C23.1875 12.7742 23.1266 12.9173 23.0182 13.0227C22.9098 13.1282 22.7627 13.1875 22.6094 13.1875Z" fill="white"/>
<path d="M22.6094 19.9375H9.89062C9.7373 19.9375 9.59025 19.8782 9.48183 19.7727C9.37341 19.6673 9.3125 19.5242 9.3125 19.375C9.3125 19.2258 9.37341 19.0827 9.48183 18.9773C9.59025 18.8718 9.7373 18.8125 9.89062 18.8125H22.6094C22.7627 18.8125 22.9098 18.8718 23.0182 18.9773C23.1266 19.0827 23.1875 19.2258 23.1875 19.375C23.1875 19.5242 23.1266 19.6673 23.0182 19.7727C22.9098 19.8782 22.7627 19.9375 22.6094 19.9375Z" fill="white"/>
</svg>
